<svg width="350" height="111" viewBox="0 0 350 111" fill="none" xmlns="http://www.w3.org/2000/svg">
<path d="M44.3367 8.04701C44.7338 8.406 45.1309 8.6932 45.6603 8.9086C46.1898 9.12399 46.7192 9.19579 47.381 9.19579C48.7046 9.19579 49.6973 8.8368 50.4915 8.04701C51.2195 7.25722 51.6165 6.25204 51.6165 5.03146C51.6165 3.81088 51.2195 2.80569 50.4915 2.01591C49.7635 1.22612 48.7046 0.867126 47.381 0.867126C46.7192 0.867126 46.1898 0.938925 45.6603 1.15432C45.1309 1.36972 44.7338 1.65691 44.3367 2.01591C43.9397 2.3749 43.6749 2.80569 43.4764 3.38009C43.2779 3.88268 43.1455 4.45707 43.1455 5.10326C43.1455 5.67765 43.2779 6.25204 43.4764 6.82643C43.6749 7.25722 43.9397 7.68802 44.3367 8.04701Z" fill="white"/>
<path d="M58.6964 37.2659H51.0195V12.9261H35.5996V19.388H43.6736V37.2659H35.5996V43.656H58.6964V37.2659Z" fill="white"/>
<path d="M68.8948 41.2149C69.7551 42.2919 70.814 43.0816 72.0714 43.5842C73.2627 44.0868 74.6524 44.3022 76.1084 44.3022C77.6967 44.3022 79.2188 43.8714 80.5424 43.0098C81.866 42.1483 83.0573 40.9277 83.9838 39.4199L84.3809 43.7278H90.9989V12.9261H83.6529V34.5376C83.1896 35.6146 82.4617 36.4043 81.6013 36.9787C80.6748 37.5531 79.4836 37.8403 78.0938 37.8403C77.2334 37.8403 76.5055 37.6967 75.9098 37.4813C75.3142 37.2659 74.851 36.9069 74.4539 36.3325C74.0568 35.83 73.7921 35.112 73.6597 34.2504C73.4612 33.3888 73.395 32.3118 73.395 31.0912V12.9261H66.1152V31.163C66.1152 33.4606 66.38 35.471 66.8432 37.1223C67.3065 38.7737 68.0344 40.1379 68.8948 41.2149Z" fill="white"/>
<path d="M100.331 39.8484C101.257 41.2125 102.449 42.2895 103.838 43.0793C105.228 43.8691 106.75 44.2281 108.471 44.2281C110.059 44.2281 111.449 43.8691 112.64 43.2229C113.832 42.5767 114.89 41.6433 115.817 40.4228L116.214 43.6537H122.766V0H115.42V15.6521C114.56 14.5752 113.567 13.7854 112.442 13.211C111.317 12.6366 109.993 12.3494 108.537 12.3494C106.75 12.3494 105.228 12.7084 103.838 13.4982C102.449 14.288 101.324 15.2932 100.331 16.7291C99.3382 18.0933 98.6102 19.7447 98.1469 21.6833C97.6175 23.6218 97.4189 25.7758 97.4189 28.0733V28.6477C97.4189 30.8735 97.6837 32.9557 98.1469 34.8942C98.6102 36.761 99.3382 38.4124 100.331 39.8484ZM104.633 28.0733C104.633 26.781 104.765 25.5604 104.963 24.4116C105.162 23.2628 105.493 22.3294 105.956 21.4679C106.419 20.6063 107.015 19.9601 107.743 19.4575C108.471 18.9549 109.331 18.7395 110.39 18.7395C111.648 18.7395 112.64 19.0267 113.501 19.6011C114.295 20.1755 114.957 20.9653 115.486 22.0422V34.5352C115.023 35.5404 114.361 36.3302 113.501 36.9764C112.64 37.5508 111.648 37.838 110.39 37.838C109.331 37.838 108.471 37.6226 107.743 37.12C107.015 36.6174 106.419 35.9712 105.956 35.1814C105.493 34.3916 105.162 33.3865 104.963 32.3095C104.765 31.2325 104.633 30.0119 104.633 28.7195V28.0733Z" fill="white"/>
<path d="M135.538 43.5801C136.729 44.0108 138.053 44.298 139.509 44.298C140.369 44.298 141.23 44.2262 142.024 44.0108C142.818 43.7955 143.48 43.5801 144.142 43.2929C144.803 43.0057 145.333 42.6467 145.862 42.2159C146.392 41.7851 146.855 41.3543 147.252 40.8517C147.318 41.4261 147.451 41.9287 147.583 42.4313C147.715 42.9339 147.848 43.3647 148.046 43.7237H155.458V43.2211C155.061 42.4313 154.797 41.4979 154.598 40.4209C154.4 39.3439 154.333 37.9797 154.333 36.3284V23.1174C154.333 21.3224 154.002 19.7428 153.407 18.3787C152.811 17.0145 151.951 15.8657 150.892 15.0041C149.833 14.1425 148.51 13.4245 147.054 12.9937C145.598 12.563 144.009 12.2758 142.289 12.2758C140.369 12.2758 138.715 12.563 137.193 13.0655C135.737 13.5681 134.479 14.2861 133.42 15.2195C132.428 16.0811 131.634 17.1581 131.104 18.3069C130.575 19.4556 130.31 20.748 130.31 22.0404H137.59C137.59 20.8916 137.921 19.9582 138.583 19.2402C139.244 18.5223 140.369 18.2351 141.825 18.2351C143.48 18.2351 144.803 18.6659 145.664 19.5274C146.524 20.389 146.987 21.5378 146.987 23.0456V24.8406H142.95C138.516 24.8406 135.207 25.7021 132.957 27.4971C130.707 29.2921 129.582 31.805 129.582 35.036C129.582 36.3284 129.847 37.6208 130.31 38.6977C130.773 39.8465 131.501 40.7799 132.362 41.6415C133.288 42.5031 134.347 43.1493 135.538 43.5801ZM137.325 32.523C137.59 31.9486 137.921 31.4461 138.45 31.0153C138.98 30.5845 139.641 30.2255 140.436 30.0101C141.23 29.7947 142.222 29.6511 143.347 29.6511H147.054V34.9642C146.855 35.395 146.524 35.754 146.193 36.113C145.796 36.472 145.399 36.831 144.87 37.1182C144.34 37.4054 143.811 37.6926 143.149 37.8361C142.487 38.0515 141.825 38.1233 141.097 38.1233C139.708 38.1233 138.649 37.7644 137.987 37.0464C137.325 36.3284 136.928 35.4668 136.928 34.3898C136.928 33.7436 137.06 33.0974 137.325 32.523Z" fill="white"/>
<path d="M168.233 43.0793C169.623 43.8691 171.145 44.2281 172.866 44.2281C174.454 44.2281 175.844 43.8691 177.035 43.2229C178.226 42.5767 179.285 41.6433 180.211 40.4228L180.609 43.6537H187.16V0H179.814V15.6521C178.954 14.5752 177.961 13.7854 176.836 13.211C175.711 12.6366 174.388 12.3494 172.932 12.3494C171.145 12.3494 169.623 12.7084 168.233 13.4982C166.843 14.288 165.718 15.2932 164.725 16.7291C163.733 18.0933 163.005 19.7447 162.541 21.6833C162.012 23.6218 161.813 25.7758 161.813 28.0733V28.6477C161.813 30.8735 162.078 32.9557 162.541 34.8942C163.071 36.8328 163.799 38.4124 164.725 39.8484C165.718 41.2125 166.843 42.2895 168.233 43.0793ZM169.093 28.0733C169.093 26.781 169.226 25.5604 169.424 24.4116C169.623 23.2628 169.954 22.3294 170.417 21.4679C170.88 20.6063 171.476 19.9601 172.204 19.4575C172.932 18.9549 173.792 18.7395 174.851 18.7395C176.108 18.7395 177.101 19.0267 177.961 19.6011C178.756 20.1755 179.417 20.9653 179.947 22.0422V34.5352C179.484 35.5404 178.822 36.3302 177.961 36.9764C177.101 37.5508 176.108 37.838 174.851 37.838C173.792 37.838 172.932 37.6226 172.204 37.12C171.476 36.6174 170.88 35.9712 170.417 35.1814C169.954 34.3916 169.623 33.3865 169.424 32.3095C169.226 31.2325 169.093 30.0119 169.093 28.7195V28.0733Z" fill="white"/>
<path d="M218.787 36.3284V23.1174C218.787 21.3224 218.457 19.7428 217.861 18.3787C217.265 17.0145 216.405 15.8657 215.346 15.0041C214.287 14.1425 212.964 13.4245 211.508 12.9937C210.052 12.563 208.463 12.2758 206.743 12.2758C204.823 12.2758 203.169 12.563 201.647 13.0655C200.191 13.5681 198.933 14.2861 197.875 15.2195C196.882 16.0811 196.088 17.1581 195.558 18.3069C195.029 19.4556 194.764 20.748 194.764 22.0404H202.044C202.044 20.8916 202.375 19.9582 203.037 19.2402C203.698 18.5223 204.823 18.2351 206.279 18.2351C207.934 18.2351 209.257 18.6659 210.118 19.5274C210.978 20.389 211.441 21.5378 211.441 23.0456V24.8406H207.404C202.97 24.8406 199.661 25.7021 197.411 27.4971C195.161 29.2921 194.036 31.805 194.036 35.036C194.036 36.3284 194.301 37.6208 194.764 38.6977C195.227 39.8465 195.955 40.7799 196.816 41.6415C197.676 42.4313 198.735 43.0775 199.926 43.5801C201.117 44.0108 202.441 44.298 203.897 44.298C204.757 44.298 205.618 44.2262 206.412 44.0108C207.206 43.7955 207.868 43.5801 208.53 43.2929C209.191 43.0057 209.721 42.6467 210.25 42.2159C210.78 41.7851 211.243 41.3543 211.64 40.8517C211.706 41.4261 211.839 41.9287 211.971 42.4313C212.103 42.9339 212.236 43.3647 212.434 43.7237H219.846V43.2211C219.449 42.4313 219.184 41.4979 218.986 40.4209C218.854 39.3439 218.787 37.9797 218.787 36.3284ZM211.441 34.8924C211.243 35.3232 210.912 35.6822 210.581 36.0412C210.184 36.4002 209.787 36.7592 209.258 37.0464C208.728 37.3336 208.199 37.6208 207.537 37.7644C206.875 37.9797 206.213 38.0515 205.485 38.0515C204.095 38.0515 203.037 37.6926 202.375 36.9746C201.713 36.2566 201.316 35.395 201.316 34.318C201.316 33.6 201.448 32.9538 201.713 32.3794C201.978 31.805 202.309 31.3025 202.838 30.8717C203.367 30.4409 204.029 30.0819 204.823 29.8665C205.618 29.6511 206.61 29.5075 207.735 29.5075H211.441V34.8924V34.8924Z" fill="white"/>
<path d="M234.273 21.8237C234.802 20.8903 235.53 20.1005 236.391 19.5979C237.251 19.0235 238.31 18.8081 239.567 18.8081C240.428 18.8081 241.156 18.8799 241.817 19.0953C242.479 19.3107 243.075 19.5979 243.538 20.0287C244.001 20.4595 244.399 21.1057 244.597 21.8955C244.862 22.6853 244.994 23.6905 244.994 24.911V43.7223H252.274V24.7674C252.274 22.5417 252.009 20.6031 251.546 19.0953C251.083 17.5157 250.421 16.2234 249.494 15.29C248.634 14.2848 247.575 13.5668 246.384 13.136C245.193 12.7052 243.869 12.418 242.479 12.418C240.692 12.418 239.104 12.8488 237.648 13.7104C236.192 14.572 234.935 15.7208 233.942 17.3004L233.611 12.9206H226.993V43.7223H234.273V21.8237Z" fill="white"/>
<path d="M276.565 12.9261H260.748V19.388H269.219V37.2659H260.748V43.656H284.705V37.2659H276.565V12.9261Z" fill="white"/>
<path d="M282.851 1.14493H274.844L269.946 9.1146H275.572L282.851 1.14493Z" fill="white"/>
<path d="M315.412 36.3284V23.1174C315.412 21.3224 315.081 19.7428 314.486 18.3787C313.89 17.0145 313.03 15.8657 311.971 15.0041C310.912 14.1425 309.589 13.4245 308.133 12.9937C306.677 12.563 305.088 12.2758 303.368 12.2758C301.448 12.2758 299.794 12.563 298.272 13.0655C296.816 13.5681 295.558 14.2861 294.5 15.2195C293.507 16.0811 292.713 17.1581 292.183 18.3069C291.654 19.4556 291.389 20.748 291.389 22.0404H298.669C298.669 20.8916 299 19.9582 299.662 19.2402C300.323 18.5223 301.448 18.2351 302.904 18.2351C304.559 18.2351 305.882 18.6659 306.743 19.5274C307.603 20.389 308.066 21.5378 308.066 23.0456V24.8406H304.029C299.595 24.8406 296.286 25.7021 294.036 27.4971C291.786 29.2921 290.661 31.805 290.661 35.036C290.661 36.3284 290.926 37.6208 291.389 38.6977C291.852 39.8465 292.58 40.7799 293.441 41.6415C294.301 42.4313 295.36 43.0775 296.551 43.5801C297.742 44.0108 299.066 44.298 300.522 44.298C301.382 44.298 302.243 44.2262 303.037 44.0108C303.831 43.7955 304.493 43.5801 305.155 43.2929C305.816 43.0057 306.346 42.6467 306.875 42.2159C307.405 41.7851 307.868 41.3543 308.265 40.8517C308.331 41.4261 308.463 41.9287 308.596 42.4313C308.728 42.9339 308.861 43.3647 309.059 43.7237H316.471V43.2211C316.074 42.4313 315.809 41.4979 315.611 40.4209C315.479 39.3439 315.412 37.9797 315.412 36.3284ZM308.133 34.8924C307.934 35.3232 307.603 35.6822 307.272 36.0412C306.875 36.4002 306.478 36.7592 305.949 37.0464C305.419 37.3336 304.89 37.6208 304.228 37.7644C303.566 37.9797 302.904 38.0515 302.176 38.0515C300.787 38.0515 299.728 37.6926 299.066 36.9746C298.404 36.2566 298.007 35.395 298.007 34.318C298.007 33.6 298.139 32.9538 298.404 32.3794C298.669 31.805 299 31.3025 299.529 30.8717C300.059 30.4409 300.72 30.0819 301.515 29.8665C302.309 29.6511 303.301 29.5075 304.427 29.5075H308.133V34.8924V34.8924Z" fill="white"/>
<path d="M347.71 43.6562H323.819V49.831H347.71V43.6562Z" fill="white"/>
<path d="M2.84277 64.9819H10.0564V93.5579H2.84277V99.948H24.8807V93.5579H17.4685V64.9819H24.8807V58.52H2.84277V64.9819Z" fill="white"/>
<path d="M57.3064 71.5066C56.446 70.5014 55.3871 69.7834 54.1959 69.3526C53.0047 68.9218 51.6811 68.6346 50.2913 68.6346C48.5044 68.6346 46.9161 69.0654 45.4602 69.927C44.0042 70.7886 42.7468 71.9374 41.7541 73.5169L41.2908 69.2808H34.6729V100.083H42.0188V78.1839C42.5483 77.2505 43.2762 76.4607 44.1366 75.9581C44.9969 75.3837 46.0558 75.1683 47.3132 75.1683C48.1735 75.1683 48.9015 75.2401 49.5633 75.4555C50.2251 75.6709 50.8207 75.9581 51.284 76.3889C51.7473 76.8197 52.1443 77.4659 52.3429 78.2557C52.6076 79.0455 52.7399 80.0506 52.7399 81.2712V100.083H60.0197V81.1276C60.0197 78.9019 59.755 76.9633 59.2918 75.4555C58.8285 73.7323 58.1667 72.44 57.3064 71.5066Z" fill="white"/>
<path d="M121.637 72.7989C120.512 71.5066 119.189 70.4296 117.6 69.7116C116.012 68.9936 114.159 68.6346 112.107 68.6346C110.122 68.6346 108.335 68.9936 106.615 69.7834C104.96 70.5732 103.504 71.6502 102.247 73.0861C101.055 74.5221 100.063 76.1735 99.4009 78.1121C98.7391 80.0506 98.4082 82.2046 98.4082 84.574V85.7227C98.4082 87.8049 98.7391 89.7435 99.4671 91.5384C100.129 93.3334 101.122 94.913 102.445 96.2772C103.703 97.6414 105.225 98.6465 107.012 99.4363C108.798 100.226 110.784 100.585 112.968 100.585C114.358 100.585 115.681 100.441 116.872 100.083C118.064 99.7953 119.189 99.3645 120.181 98.7901C121.174 98.2875 122.034 97.6414 122.762 96.9952C123.49 96.349 124.086 95.631 124.549 94.913L120.909 90.6769C120.512 91.2513 119.983 91.7538 119.453 92.1846C118.924 92.6154 118.262 92.9744 117.667 93.2616C117.005 93.5488 116.343 93.7642 115.615 93.9078C114.887 94.0514 114.225 94.1232 113.497 94.1232C112.505 94.1232 111.578 93.9796 110.718 93.6206C109.857 93.2616 109.129 92.8308 108.468 92.1846C107.806 91.5384 107.276 90.8205 106.813 89.9589C106.416 89.0973 106.085 88.1639 105.953 87.0869H125.211V83.7124C125.211 81.4866 124.946 79.4044 124.351 77.5377C123.623 75.7427 122.762 74.0913 121.637 72.7989ZM117.865 81.702H105.887C106.085 80.6968 106.35 79.7634 106.681 78.9736C107.012 78.1839 107.475 77.4659 108.004 76.8915C108.534 76.3171 109.129 75.8863 109.791 75.5273C110.453 75.2401 111.247 75.0247 112.041 75.0247C112.968 75.0247 113.762 75.1683 114.49 75.5273C115.218 75.8145 115.813 76.2453 116.277 76.8197C116.74 77.3941 117.137 77.9685 117.402 78.7582C117.667 79.4762 117.799 80.266 117.865 81.1276V81.702V81.702Z" fill="white"/>
<path d="M147.323 56.2911H131.439V62.753H139.977V93.5548H131.439V99.9449H155.463V93.5548H147.323V56.2911Z" fill="white"/>
<path d="M178.353 69.2173H162.933V75.6792H171.007V93.5571H162.933V99.9472H186.029V93.5571H178.353V69.2173Z" fill="white"/>
<path d="M174.644 57.0769C173.982 57.0769 173.452 57.1487 172.923 57.3641C172.394 57.5795 171.997 57.8667 171.599 58.2257C171.202 58.5847 170.938 59.0155 170.739 59.5899C170.541 60.0925 170.408 60.6669 170.408 61.3131C170.408 61.8875 170.541 62.4619 170.739 63.0362C170.938 63.5388 171.202 63.9696 171.599 64.4004C171.997 64.7594 172.394 65.0466 172.923 65.262C173.452 65.4774 173.982 65.5492 174.644 65.5492C175.967 65.5492 176.96 65.1902 177.754 64.4004C178.482 63.6106 178.879 62.6055 178.879 61.3849C178.879 60.1643 178.482 59.1591 177.754 58.3693C176.96 57.5077 175.967 57.0769 174.644 57.0769Z" fill="white"/>
<path d="M249.892 72.7989C248.767 71.5066 247.444 70.4296 245.855 69.7116C244.267 68.9936 242.414 68.6346 240.362 68.6346C238.377 68.6346 236.59 68.9936 234.869 69.7834C233.215 70.5732 231.759 71.6502 230.502 73.0861C229.31 74.5221 228.318 76.1735 227.656 78.1121C226.994 80.0506 226.663 82.2046 226.663 84.574V85.7227C226.663 87.8049 226.994 89.7435 227.722 91.5384C228.384 93.3334 229.376 94.913 230.7 96.2772C231.957 97.6414 233.48 98.6465 235.266 99.4363C237.053 100.226 239.039 100.585 241.223 100.585C242.612 100.585 243.936 100.441 245.127 100.083C246.318 99.7953 247.444 99.3645 248.436 98.7901C249.429 98.2875 250.289 97.6414 251.017 96.9952C251.745 96.349 252.341 95.631 252.804 94.913L249.164 90.6769C248.767 91.2513 248.238 91.7538 247.708 92.1846C247.179 92.6154 246.517 92.9744 245.921 93.2616C245.26 93.5488 244.598 93.7642 243.87 93.9078C243.142 94.0514 242.48 94.1232 241.752 94.1232C240.759 94.1232 239.833 93.9796 238.973 93.6206C238.112 93.2616 237.384 92.8308 236.722 92.1846C236.061 91.5384 235.531 90.8205 235.068 89.9589C234.671 89.0973 234.34 88.1639 234.208 87.0869H253.466V83.7124C253.466 81.4866 253.201 79.4044 252.606 77.5377C251.811 75.7427 250.951 74.0913 249.892 72.7989ZM246.12 81.702H234.141C234.34 80.6968 234.605 79.7634 234.936 78.9736C235.266 78.1839 235.73 77.4659 236.259 76.8915C236.789 76.3171 237.384 75.8863 238.046 75.5273C238.708 75.2401 239.502 75.0247 240.296 75.0247C241.223 75.0247 242.017 75.1683 242.745 75.5273C243.473 75.8145 244.068 76.2453 244.532 76.8197C244.995 77.3941 245.392 77.9685 245.657 78.7582C245.921 79.4762 246.054 80.266 246.12 81.1276V81.702V81.702Z" fill="white"/>
<path d="M283.511 71.5066C282.651 70.5014 281.592 69.7834 280.401 69.3526C279.21 68.9218 277.886 68.6346 276.496 68.6346C274.709 68.6346 273.121 69.0654 271.665 69.927C270.209 70.7886 268.952 71.9374 267.959 73.5169L267.496 69.2808H260.878V100.083H268.224V78.1839C268.753 77.2505 269.481 76.4607 270.342 75.9581C271.202 75.3837 272.261 75.1683 273.518 75.1683C274.379 75.1683 275.107 75.2401 275.768 75.4555C276.43 75.6709 277.026 75.9581 277.489 76.3889C277.952 76.8197 278.349 77.4659 278.548 78.2557C278.813 79.0455 278.945 80.0506 278.945 81.2712V100.083H286.225V81.1276C286.225 78.9019 285.96 76.9633 285.497 75.4555C285.034 73.7323 284.372 72.44 283.511 71.5066Z" fill="white"/>
<path d="M349.497 83.7842C349.497 81.5584 349.232 79.4762 348.636 77.6095C348.041 75.7427 347.247 74.1631 346.122 72.7989C344.997 71.5066 343.673 70.4296 342.085 69.7116C340.496 68.9936 338.643 68.6346 336.592 68.6346C334.606 68.6346 332.819 68.9936 331.099 69.7834C329.444 70.5732 327.988 71.6502 326.731 73.0861C325.54 74.5221 324.547 76.1735 323.885 78.1121C323.223 80.0506 322.893 82.2046 322.893 84.574V85.7227C322.893 87.8049 323.223 89.7435 323.951 91.5384C324.613 93.3334 325.606 94.913 326.93 96.2772C328.187 97.6414 329.709 98.6465 331.496 99.4363C333.283 100.226 335.268 100.585 337.452 100.585C338.842 100.585 340.165 100.441 341.357 100.083C342.548 99.7953 343.673 99.3645 344.666 98.7901C345.658 98.2875 346.519 97.6414 347.247 96.9952C347.975 96.349 348.57 95.631 349.033 94.913L345.394 90.6769C344.997 91.2513 344.467 91.7538 343.938 92.1846C343.408 92.6154 342.746 92.9744 342.151 93.2616C341.489 93.5488 340.827 93.7642 340.099 93.9078C339.371 94.0514 338.709 94.1232 337.982 94.1232C336.989 94.1232 336.062 93.9796 335.202 93.6206C334.342 93.2616 333.614 92.8308 332.952 92.1846C332.29 91.5384 331.761 90.8205 331.297 89.9589C330.9 89.0973 330.569 88.1639 330.437 87.0869H349.695V83.7842H349.497ZM342.349 81.702H330.371C330.569 80.6968 330.834 79.7634 331.165 78.9736C331.496 78.1839 331.959 77.4659 332.489 76.8915C333.018 76.3171 333.614 75.8863 334.275 75.5273C334.937 75.2401 335.731 75.0247 336.526 75.0247C337.452 75.0247 338.246 75.1683 338.974 75.5273C339.702 75.8145 340.298 76.2453 340.761 76.8197C341.224 77.3941 341.621 77.9685 341.886 78.7582C342.151 79.4762 342.283 80.266 342.349 81.1276V81.702V81.702Z" fill="white"/>
<path d="M211.445 72.085C210.585 70.9362 209.592 70.0746 208.401 69.5003C207.21 68.9259 205.82 68.5669 204.099 68.5669C202.312 68.5669 200.724 68.9259 199.334 69.7156C197.945 70.5054 196.687 71.5106 195.694 72.9466C194.702 74.3108 193.908 75.9621 193.378 77.9007C192.849 79.8393 192.584 81.9932 192.584 84.2908V84.8652C192.584 87.091 192.849 89.1731 193.378 91.1117C193.908 93.0503 194.702 94.6298 195.694 96.0658C196.687 97.43 197.878 98.507 199.268 99.2968C200.658 100.087 202.246 100.446 204.033 100.446C205.555 100.446 206.879 100.158 208.004 99.584C209.129 99.0096 210.122 98.2198 210.982 97.2146V99.0096V102.743C210.982 102.887 210.982 102.959 210.916 103.102C210.85 104.035 210.386 104.538 209.526 104.538H196.224V111H214.159C215.35 111 216.343 110.569 217.137 109.708C217.931 108.846 218.262 108.343 218.262 106.979V98.9378V96.7838V69.2131H211.644L211.445 72.085ZM211.048 91.1117C210.585 92.0451 209.923 92.8349 209.063 93.3375C208.202 93.8401 207.21 94.1273 205.886 94.1273C204.827 94.1273 203.967 93.9119 203.239 93.4093C202.511 92.9067 201.849 92.2605 201.386 91.4707C200.923 90.6809 200.526 89.6757 200.327 88.5987C200.062 87.5218 199.996 86.3012 199.996 85.0088V84.4344C199.996 83.142 200.128 81.9214 200.393 80.7727C200.658 79.6239 200.989 78.6905 201.518 77.8289C202.048 76.9673 202.643 76.3211 203.371 75.8185C204.099 75.316 205.026 75.1006 206.018 75.1006C207.276 75.1006 208.269 75.3878 209.129 75.8903C209.989 76.3929 210.651 77.1827 211.114 78.1161V91.1117H211.048Z" fill="white"/>
<path d="M306.15 61.6702H298.87V69.2091H292.385V75.0248H298.87V89.0256V95.4875V95.9901C298.87 97.2824 299.267 97.8568 299.995 98.7184C300.79 99.58 301.782 100.011 302.974 100.011H305.157H314.489H316.607V99.3646V93.5489H315.945H308.466H307.54C306.68 93.5489 306.216 93.0463 306.15 92.1129C306.15 92.0411 306.15 91.9693 306.15 91.8975V87.5896V75.0248H316.739V69.2091H306.15V61.6702Z" fill="white"/>
<path d="M80.406 61.6702H73.1263V69.2091H66.6406V75.0248H73.1263V89.0256V95.4875V95.9901C73.1263 97.2824 73.5233 97.8568 74.2513 98.7184C75.0455 99.58 76.0382 100.011 77.2294 100.011H79.4133H88.7447H90.8625V99.3646V93.5489H90.2007H82.7223H81.7958C80.9355 93.5489 80.4722 93.0463 80.406 92.1129C80.406 92.0411 80.406 91.9693 80.406 91.8975V87.5896V75.0248H90.9948V69.2091H80.406V61.6702Z" fill="white"/>
<path d="M20.5819 17.9541H27.7294V16.8771C27.7294 16.4463 27.7294 16.0155 27.6632 15.5848C27.597 13.7898 27.2661 12.1384 26.8028 10.6306C26.2072 8.76386 25.3469 7.18428 24.1556 5.8201C22.9644 4.52773 21.5746 3.52254 19.854 2.80455C18.1333 2.08656 16.1479 1.72757 13.9639 1.72757C12.7065 1.72757 11.5153 1.87117 10.3902 2.15836C9.66226 2.37376 9.00046 2.66095 8.33866 2.94815C6.61798 3.88154 5.09585 5.10212 3.90461 6.75349C2.64719 8.40486 1.72068 10.3434 1.05888 12.641C0.330899 14.9386 0 17.4515 0 20.2517V22.98V25.7802C0 28.5085 0.330899 31.0215 0.926518 33.3191C1.58832 35.6166 2.44865 37.5552 3.63989 39.1348C4.83113 40.7144 6.28708 42.0067 8.07394 42.9401C8.40484 43.0837 8.73574 43.2273 9.13282 43.3709C10.5888 43.8735 12.1771 44.1607 13.9639 44.1607C16.2141 44.1607 18.1333 43.8017 19.854 43.0837C21.5746 42.3657 23.0306 41.3605 24.1556 40.0682C25.3469 38.7758 26.2072 37.1244 26.8028 35.2576C27.2661 33.8217 27.5308 32.3139 27.6632 30.6625C27.7294 30.0881 27.7294 29.5855 27.7294 29.0111V28.006H20.5819V29.0829C20.5819 29.5137 20.5819 30.1599 20.5819 30.7343C20.4496 33.2473 19.7878 35.0422 18.6627 36.1192C17.5377 37.1962 16.0155 37.7706 14.0963 37.7706C11.78 37.7706 10.1255 36.7654 9.06664 34.8268C8.00776 32.8883 7.47832 29.8727 7.47832 25.7802V20.1081C7.47832 18.2413 7.61068 16.5181 7.8754 15.0104C8.14012 13.5026 8.5372 12.282 9.06664 11.205C9.59608 10.128 10.3241 9.41005 11.1844 8.83566C12.0447 8.33306 13.0374 8.04587 14.1625 8.04587C15.2214 8.04587 16.1479 8.18947 16.942 8.54846C17.7362 8.83566 18.398 9.33825 18.9274 9.91264C19.4569 10.5588 19.7878 11.3486 20.0525 12.282C20.3172 13.2154 20.5158 14.2924 20.5819 15.513C20.5819 16.0155 20.5819 16.4463 20.5819 16.8053V17.9541Z" fill="white"/>
</svg>
